<svg width="512" height="512" viewBox="0 0 512 512" fill="none" xmlns="http://www.w3.org/2000/svg">
  <rect width="512" height="512" rx="24" fill="#111111"/>
  <path d="M123.4 83.84H255.96C334.44 83.84 373.8 124.8 373.8 191.68C373.8 233.84 355.56 266.72 317.16 281.6C360.84 293.12 386.28 326 386.28 375.64C386.28 451.16 336.36 496.24 256.92 496.24H123.4V83.84ZM246.36 243.92C278.04 243.92 294.36 228.08 294.36 200.8C294.36 173.52 278.04 157.68 246.36 157.68H196.84V243.92H246.36ZM251.64 422.4C288.12 422.4 306.84 404.64 306.84 373.92C306.84 343.2 288.12 325.44 251.64 325.44H196.84V422.4H251.64Z" fill="#F2F2F2"/>
  <path d="M128.68 506.8V94.4H260.76C335.88 94.4 373.32 133.28 373.32 197.68C373.32 243.76 354.12 274.24 317.64 287.2V288.16C364.2 297.76 389.16 331.12 389.16 380.72C389.16 454.88 338.76 506.8 260.76 506.8H128.68ZM202.6 263.6H252.12C285.24 263.6 302.04 247.28 302.04 219.04C302.04 190.8 285.24 174.48 252.12 174.48H202.6V263.6ZM202.6 432.96H257.4C294.84 432.96 313.56 415.2 313.56 384.48C313.56 353.76 294.84 336 257.4 336H202.6V432.96Z" fill="#F2F2F2" opacity="0.001"/>
  <path d="M116 292H269C340 292 385 336 385 404C385 472 340 516 269 516H116V292ZM245 449C281 449 304 430 304 404C304 378 281 359 245 359H193V449H245Z" fill="#F2F2F2" opacity="0.001"/>
  <path d="M286.6 345.55C286.6 296.7 320.05 260.9 371.95 260.9C405.4 260.9 432.6 275.7 446.95 302.7L396.7 327.2C391.4 316.35 382.2 310.4 371.35 310.4C352.95 310.4 342.25 324.55 342.25 345.55C342.25 366.55 352.95 380.7 371.35 380.7C382.2 380.7 391.4 374.75 396.7 363.9L446.95 388.4C432.6 415.4 405.4 430.2 371.95 430.2C320.05 430.2 286.6 394.4 286.6 345.55Z" fill="#F2F2F2" opacity="0.001"/>
  <path d="M116 84H236C310 84 357 129 357 194C357 259 310 304 236 304H190V428H116V84ZM224 239C257 239 278 223 278 194C278 165 257 149 224 149H190V239H224Z" fill="#F2F2F2" opacity="0.001"/>
  <path d="M316 346C316 304 345 273 389 273C417 273 441 286 452 308L415 326C411 318 403 313 394 313C379 313 369 326 369 346C369 366 379 379 394 379C403 379 411 374 415 366L452 384C441 406 417 419 389 419C345 419 316 388 316 346Z" fill="#F2F2F2"/>
  <path d="M116 84H237C311 84 358 129 358 194C358 259 311 304 237 304H191V428H116V84ZM225 239C258 239 279 223 279 194C279 165 258 149 225 149H191V239H225Z" fill="#F2F2F2"/>
  <path d="M116 84H246C322 84 361 124 361 189C361 230 342 260 305 274C347 286 372 318 372 365C372 440 323 484 246 484H116V84ZM236 246C267 246 283 231 283 205C283 179 267 164 236 164H188V246H236ZM242 404C277 404 295 387 295 358C295 329 277 312 242 312H188V404H242Z" fill="#F2F2F2" opacity="0.001"/>
</svg>